# xmcd
#
# Track frame offsets: 
#        150
#        16251
#        28704
#        40870
#        53106
#        65500
#        76912
#        87123
#        104437
#        114516
#        126161
#        136645
#        148462
#        160776
#
# Disc length: 2295 seconds
#
# Revision: 0
# Processed by: cddbd v1.5.2PL0 Copyright (c) Steve Scherf et al.
# Submitted via: ExactAudioCopyFreeDBPlugin 1.0
#
DISCID=b508f50e
DTITLE=The Louvin Brothers - Handpicked Songs 1955-1962
DYEAR=2011
DGENRE=Country
TTITLE0=Almost Persuaded
TTITLE1=My Baby's Gone
TTITLE2=The Great Atomic Power
TTITLE3=I See A Bridge
TTITLE4=Alabama
TTITLE5=When I Stop Dreaming
TTITLE6=Low And Lonely
TTITLE7=Knoxville Girl
TTITLE8=Scared Of The Blues
TTITLE9=Don't Laugh
TTITLE10=You're Running Wild
TTITLE11=Are You Afraid To Die
TTITLE12=Cash On The Barrel Head
TTITLE13=I Wish It Had Been A Dream
EXTD=
EXTT0=
EXTT1=
EXTT2=
EXTT3=
EXTT4=
EXTT5=
EXTT6=
EXTT7=
EXTT8=
EXTT9=
EXTT10=
EXTT11=
EXTT12=
EXTT13=
PLAYORDER=
